<svg width="1400" height="420" viewBox="0 0 1400 420" fill="none" xmlns="http://www.w3.org/2000/svg">
  <defs>
    <linearGradient id="bg" x1="0" y1="0" x2="1400" y2="420" gradientUnits="userSpaceOnUse">
      <stop offset="0" stop-color="#0F172A"/>
      <stop offset="0.48" stop-color="#155E75"/>
      <stop offset="1" stop-color="#111827"/>
    </linearGradient>
    <linearGradient id="accent" x1="320" y1="70" x2="1080" y2="350" gradientUnits="userSpaceOnUse">
      <stop offset="0" stop-color="#67E8F9"/>
      <stop offset="0.52" stop-color="#A7F3D0"/>
      <stop offset="1" stop-color="#FDE68A"/>
    </linearGradient>
    <filter id="softShadow" x="-20%" y="-20%" width="140%" height="140%">
      <feDropShadow dx="0" dy="22" stdDeviation="28" flood-color="#020617" flood-opacity="0.28"/>
    </filter>
  </defs>

  <rect width="1400" height="420" rx="28" fill="url(#bg)"/>

  <g opacity="0.13">
    <path d="M96 78H1304" stroke="white"/>
    <path d="M96 142H1304" stroke="white"/>
    <path d="M96 206H1304" stroke="white"/>
    <path d="M96 270H1304" stroke="white"/>
    <path d="M96 334H1304" stroke="white"/>
    <path d="M164 42V378" stroke="white"/>
    <path d="M328 42V378" stroke="white"/>
    <path d="M492 42V378" stroke="white"/>
    <path d="M656 42V378" stroke="white"/>
    <path d="M820 42V378" stroke="white"/>
    <path d="M984 42V378" stroke="white"/>
    <path d="M1148 42V378" stroke="white"/>
  </g>

  <g filter="url(#softShadow)">
    <rect x="92" y="70" width="1216" height="280" rx="24" fill="#020617" fill-opacity="0.34" stroke="white" stroke-opacity="0.16"/>
    <path d="M157 286C236 171 327 251 408 166C514 54 620 184 707 122C818 43 938 135 1003 218C1077 313 1179 237 1242 117" stroke="url(#accent)" stroke-width="8" stroke-linecap="round"/>
    <path d="M157 286C236 171 327 251 408 166C514 54 620 184 707 122C818 43 938 135 1003 218C1077 313 1179 237 1242 117" stroke="white" stroke-opacity="0.42" stroke-width="2" stroke-linecap="round"/>
  </g>

  <g>
    <circle cx="158" cy="120" r="9" fill="#67E8F9"/>
    <circle cx="408" cy="166" r="9" fill="#A7F3D0"/>
    <circle cx="707" cy="122" r="9" fill="#FDE68A"/>
    <circle cx="1003" cy="218" r="9" fill="#67E8F9"/>
    <circle cx="1242" cy="117" r="9" fill="#A7F3D0"/>
  </g>

  <text x="116" y="316" fill="#E5E7EB" font-family="Inter, ui-sans-serif, system-ui, -apple-system, BlinkMacSystemFont, Segoe UI, sans-serif" font-size="26" font-weight="700" letter-spacing="0">
    LLM INFRASTRUCTURE
  </text>
  <text x="116" y="252" fill="white" font-family="Inter, ui-sans-serif, system-ui, -apple-system, BlinkMacSystemFont, Segoe UI, sans-serif" font-size="78" font-weight="800" letter-spacing="0">
    george
  </text>
  <text x="118" y="168" fill="#BAE6FD" font-family="Inter, ui-sans-serif, system-ui, -apple-system, BlinkMacSystemFont, Segoe UI, sans-serif" font-size="28" font-weight="600" letter-spacing="0">
    Inference · Systems · Performance · Tooling
  </text>

  <g transform="translate(1066 278)">
    <rect width="180" height="44" rx="22" fill="white" fill-opacity="0.12" stroke="white" stroke-opacity="0.22"/>
    <circle cx="30" cy="22" r="8" fill="#34D399"/>
    <text x="50" y="30" fill="#F8FAFC" font-family="Inter, ui-sans-serif, system-ui, sans-serif" font-size="18" font-weight="700" letter-spacing="0">Open to optimize</text>
  </g>
</svg>
